# xmcd CD database file
#
# Track frame offsets:
#	180
#	18140
#	36845
#	54450
#	70810
#	87135
#	109180
#	122710
#	140065
#	162000
#	176455
#	202110
#
# Disc length: 3021 seconds
#
# Revision: 4
# Processed by: cddbd v1.5.2PL0 Copyright (c) Steve Scherf et al.
# Submitted via: CDex 1.51
#
DISCID=9f0bcb0c
DTITLE=MS® - Jugo De Hits 9.7
DYEAR=1995
DGENRE=Pop
TTITLE0=Demis Roussos - My Reason
TTITLE1=Joe Esposito - Lady Lady Lady
TTITLE2=Elton John - Daniel
TTITLE3=Gino Vannelli - I Just Wanna Stop
TTITLE4=Rita Coolidge - We're All Alone
TTITLE5=Billy Preston - You Are So Beautiful
TTITLE6=Yvonne Elliman - If I Can't Have You
TTITLE7=Glenn Medeiros - Nothing's Gonna Change My Love For You
TTITLE8=Barry White - Just The Way You Are
TTITLE9=Teri De Sario and KC - Yes I'm Ready
TTITLE10=Santa Esmeralda - You Are My Everything
TTITLE11=Stylistics - You Make Me Feel Brand New
EXTD=MS® YEAR: 1995
EXTT0=
EXTT1=
EXTT2=
EXTT3=
EXTT4=
EXTT5=
EXTT6=
EXTT7=
EXTT8=
EXTT9=
EXTT10=
EXTT11=
PLAYORDER=
